<svg width="332" height="336" viewBox="0 0 332 336" fill="none" xmlns="http://www.w3.org/2000/svg">
<path d="M318.057 297.494C316.604 296.678 314.786 296.02 312.857 295.582C308.499 294.596 303.642 294.523 298.906 294.462C257.869 293.963 217.114 293.78 176.066 293.78C143.745 293.525 111.436 293.257 79.1144 293.099C63.9181 293.026 48.6851 292.965 33.5376 293.671C27.2638 293.963 20.7336 294.438 15.5461 296.374C10.3586 298.309 7.06308 302.132 9.69952 305.224C14.0815 310.337 28.765 310.045 37.2481 310.057C102.659 310.154 168.083 309.96 233.494 309.753C255.392 309.68 277.289 309.619 299.15 308.986C304.044 308.84 309.098 308.657 313.492 307.476C317.898 306.307 321.548 303.897 321.279 301.255C321.145 299.819 319.888 298.528 318.057 297.494Z" fill="#D9E0FC"/>
<path d="M320.265 184.252C319.155 184.495 317.885 184.629 316.457 184.629C267.365 184.629 218.285 184.629 169.193 184.617C144.647 184.617 120.101 184.617 95.5673 184.605C84.1425 184.605 38.3216 190.911 33.3538 179.65C32.3041 177.276 32.3041 174.659 32.3041 172.102C32.3041 123.906 32.4384 75.7093 32.4384 27.5127C32.4384 25.8084 32.4384 24.0918 32.4384 22.3875C32.4384 18.784 35.6608 15.8623 39.6277 15.8623C93.3091 15.8623 146.978 15.8623 200.66 15.8623C228.404 15.8623 256.148 15.8623 283.904 15.8623C295.585 15.8623 327.564 10.4327 327.564 25.6866C327.564 54.6727 327.552 83.671 327.552 112.657C327.552 127.485 327.552 142.325 327.552 157.153C327.54 166.587 331.885 181.683 320.265 184.252Z" fill="#D9E0FC"/>
<path d="M303.703 174.452C299.223 177.52 290.935 175.779 284.039 175.779C270.454 175.779 256.881 175.779 243.296 175.779C206.544 175.779 169.804 175.779 133.052 175.779C96.0198 175.779 58.9993 175.779 21.9666 175.779C20.7216 175.779 19.7207 174.781 19.7207 173.539C19.7085 144.821 19.5376 116.09 19.4766 87.3719C19.44 73.0067 19.44 58.6536 19.501 44.2884C19.5377 34.8901 15.6928 14.2432 22.0277 6.89015C23.8097 4.83276 46.8056 7.3771 49.674 7.3771C62.0142 7.35275 74.3542 7.3284 86.6822 7.30406C110.63 7.25536 134.578 7.20668 158.526 7.14581C190.701 7.14581 222.888 7.01188 255.062 6.93883C271.992 6.90231 303.483 6.99971 305.863 7.02406C308.927 7.06058 307.609 54.6119 307.633 58.1301C307.792 77.7423 307.694 97.3667 307.511 116.979C307.377 131.624 307.169 146.269 307.011 160.927C306.986 162.874 306.962 164.822 306.962 166.77C306.974 170.702 305.717 173.064 303.703 174.452Z" fill="#FF6652"/>
<path d="M297.782 159.892C288.969 159.661 280.132 159.831 271.319 159.831C262.495 159.831 253.67 159.843 244.857 159.843C227.207 159.855 209.57 159.868 191.92 159.88C156.816 159.904 121.7 159.916 86.5956 160.014C76.6967 160.038 66.7855 160.062 56.8865 160.099C46.9997 160.123 37.0397 160.001 27.1773 160.695C26.6037 160.732 26.6037 161.535 27.1773 161.584C35.9778 162.205 44.8271 162.095 53.6398 162.168C62.4646 162.241 71.2895 162.217 80.1021 162.241C97.7518 162.29 115.389 162.302 133.039 162.327C168.143 162.375 203.259 162.4 238.364 162.424C248.263 162.436 258.174 162.436 268.073 162.448C277.972 162.461 287.883 162.655 297.782 162.4C299.405 162.363 299.417 159.928 297.782 159.892Z" fill="#9C4DF4"/>
<path d="M287.639 158.553C287.346 157.652 286.833 156.861 286.125 156.203C285.21 155.302 284.136 154.669 282.891 154.328C282.671 154.255 282.452 154.182 282.244 154.109C281.28 153.805 280.315 153.768 279.363 153.975C278.399 154.024 277.508 154.304 276.678 154.827C276.19 155.205 275.702 155.582 275.213 155.96C274.505 156.617 274.005 157.384 273.724 158.285C273.395 158.845 273.236 159.454 273.236 160.111C273.016 161.073 273.065 162.022 273.37 162.984C273.614 163.556 273.859 164.128 274.103 164.713C274.75 165.796 275.616 166.661 276.703 167.306C276.898 167.44 277.081 167.574 277.276 167.708C278.424 168.365 279.656 168.706 280.975 168.706C281.622 168.621 282.268 168.535 282.928 168.45C284.173 168.097 285.247 167.476 286.162 166.575C286.882 165.918 287.383 165.127 287.676 164.226C288.139 163.349 288.347 162.412 288.31 161.414C288.31 160.367 288.103 159.429 287.639 158.553Z" fill="#9C4DF4"/>
<path d="M250.387 222.295L49.8807 219.337L50.674 12.3928L249.801 13.9267L250.387 222.295Z" fill="white" stroke="black" stroke-width="0.5" stroke-miterlimit="10"/>
<path d="M94.8331 175.657C94.235 183.278 93.6368 190.887 93.0388 198.508C92.9533 199.542 92.2209 200.419 91.1224 200.419C87.6071 200.431 84.104 200.443 80.5887 200.468C77.4396 200.48 74.2905 200.492 71.1414 200.504C70.3114 200.504 69.4448 200.516 68.7002 200.078C67.8824 199.591 67.4918 198.751 67.382 197.85C67.2233 196.377 67.3942 194.819 67.4308 193.334C67.5529 187.052 67.7848 180.77 68.4805 174.513C68.6026 173.381 69.872 173.125 70.4579 173.782C71.4832 173.466 72.716 173.612 73.729 173.612C74.9985 173.612 76.2556 173.624 77.5251 173.624C82.6271 173.649 87.7414 173.673 92.8435 173.673C93.8566 173.673 94.9185 174.586 94.8331 175.657ZM89.3404 196.609C89.8042 190.29 90.2558 183.972 90.7196 177.654C87.7292 177.666 84.7265 177.69 81.7361 177.702C79.8808 177.715 78.0255 177.727 76.1824 177.739C75.2304 177.751 74.2905 177.751 73.3384 177.751C72.9967 177.751 72.655 177.751 72.3132 177.751C71.947 178.056 71.4832 178.238 70.9949 178.262C71.0926 180.296 71.1536 182.341 71.1902 184.386C71.239 187.32 71.1902 190.254 71.1536 193.188C71.1414 193.955 71.1292 194.722 71.117 195.489C71.1048 195.89 71.1292 196.316 71.1292 196.743C71.2879 196.755 71.4344 196.767 71.5564 196.767L73.5826 196.755C78.8311 196.706 84.0797 196.657 89.3404 196.609Z" fill="#9C4DF4"/>
<path d="M94.8331 131.222C94.235 138.843 93.6368 146.452 93.0388 154.073C92.9533 155.108 92.2209 155.984 91.1224 155.984C87.6071 155.996 84.104 156.009 80.5887 156.033C77.4396 156.045 74.2905 156.057 71.1414 156.069C70.3114 156.069 69.4448 156.082 68.7002 155.643C67.8824 155.156 67.4918 154.316 67.382 153.415C67.2233 151.942 67.3942 150.384 67.4308 148.899C67.5529 142.617 67.7848 136.336 68.4805 130.078C68.6026 128.946 69.872 128.69 70.4579 129.348C71.4832 129.031 72.716 129.177 73.729 129.177C74.9985 129.177 76.2556 129.189 77.5251 129.189C82.6271 129.214 87.7414 129.238 92.8435 129.238C93.8566 129.238 94.9185 130.151 94.8331 131.222ZM89.3404 152.174C89.8042 145.856 90.2558 139.537 90.7196 133.219C87.7292 133.231 84.7265 133.256 81.7361 133.268C79.8808 133.28 78.0255 133.292 76.1824 133.304C75.2304 133.304 74.2905 133.316 73.3384 133.316C72.9967 133.316 72.655 133.316 72.3132 133.316C71.947 133.621 71.4832 133.803 70.9949 133.828C71.0926 135.861 71.1536 137.906 71.1902 139.951C71.239 142.885 71.1902 145.819 71.1536 148.753C71.1414 149.52 71.1292 150.287 71.117 151.054C71.1048 151.456 71.1292 151.882 71.1292 152.308C71.2879 152.32 71.4344 152.332 71.5564 152.332L73.5826 152.32C78.8311 152.271 84.0797 152.222 89.3404 152.174Z" fill="#9C4DF4"/>
<path d="M94.8331 86.7877C94.235 94.4085 93.6368 102.017 93.0388 109.638C92.9533 110.673 92.2209 111.549 91.1224 111.549C87.6071 111.562 84.104 111.574 80.5887 111.598C77.4396 111.61 74.2905 111.622 71.1414 111.635C70.3114 111.635 69.4448 111.647 68.7002 111.209C67.8824 110.722 67.4918 109.882 67.382 108.981C67.2233 107.508 67.3942 105.949 67.4308 104.464C67.5529 98.1824 67.7848 91.9007 68.4805 85.6433C68.6026 84.5111 69.872 84.2555 70.4579 84.9129C71.4832 84.5963 72.716 84.7424 73.729 84.7424C74.9985 84.7424 76.2556 84.7546 77.5251 84.7546C82.6271 84.779 87.7414 84.8033 92.8435 84.8033C93.8566 84.8033 94.9185 85.7164 94.8331 86.7877ZM89.3404 107.739C89.8042 101.421 90.2558 95.1024 90.7196 88.7842C87.7292 88.7964 84.7265 88.8207 81.7361 88.8329C79.8808 88.845 78.0255 88.8572 76.1824 88.8694C75.2304 88.8694 74.2905 88.8816 73.3384 88.8816C72.9967 88.8816 72.655 88.8816 72.3132 88.8816C71.947 89.1859 71.4832 89.3685 70.9949 89.3929C71.0926 91.4259 71.1536 93.4711 71.1902 95.5163C71.239 98.4503 71.1902 101.384 71.1536 104.318C71.1414 105.085 71.1292 105.852 71.117 106.619C71.1048 107.021 71.1292 107.447 71.1292 107.873C71.2879 107.885 71.4344 107.897 71.5564 107.897L73.5826 107.885C78.8311 107.836 84.0797 107.788 89.3404 107.739Z" fill="#9C4DF4"/>
<path d="M202.905 89.1127C196.497 88.9423 190.077 89.0762 183.669 89.0884C177.322 89.1005 170.962 89.1005 164.615 89.1127C151.787 89.1249 138.958 89.1857 126.142 89.2466C122.566 89.2588 118.99 89.2831 115.413 89.2953C111.788 89.3075 108.114 89.2344 104.501 89.4901C104.037 89.5266 104.037 90.1718 104.501 90.1962C107.687 90.4153 110.922 90.3544 114.12 90.3788C117.33 90.4153 120.528 90.4153 123.738 90.4275C130.085 90.464 136.444 90.4883 142.791 90.5249C155.62 90.5857 168.448 90.5736 181.264 90.5979C188.478 90.6101 195.704 90.7684 202.905 90.5736C203.857 90.5614 203.857 89.137 202.905 89.1127Z" fill="#969696"/>
<path d="M158.146 96.0396C144.292 95.8813 130.438 95.7474 116.585 95.7474C112.63 95.7474 108.663 95.7109 104.708 95.7718C103.952 95.784 103.952 96.9405 104.708 96.9527C118.55 97.1718 132.416 96.9648 146.269 96.8796C150.224 96.8553 154.191 96.7335 158.146 96.6848C158.561 96.6848 158.561 96.0518 158.146 96.0396Z" fill="#969696"/>
<path d="M200.683 103.405C188.196 103.174 175.697 103.356 163.211 103.38C150.724 103.405 138.225 103.417 125.739 103.441C118.684 103.454 111.641 103.466 104.586 103.587C104.012 103.6 104.012 104.464 104.586 104.476C117.073 104.707 129.571 104.634 142.058 104.647C154.545 104.671 167.044 104.683 179.53 104.707C186.585 104.72 193.628 104.78 200.683 104.647C201.489 104.647 201.489 103.417 200.683 103.405Z" fill="#969696"/>
<path d="M168.336 133.353C164.113 133.073 159.829 133.304 155.593 133.317C151.346 133.329 147.098 133.341 142.85 133.353C134.355 133.377 125.872 133.402 117.377 133.426C112.568 133.438 107.783 133.499 102.974 133.67C102.632 133.682 102.632 134.193 102.974 134.205C111.457 134.485 119.952 134.449 128.447 134.473C136.943 134.497 145.426 134.522 153.921 134.546C156.265 134.558 158.596 134.558 160.94 134.571C163.393 134.583 165.871 134.68 168.324 134.51C169.093 134.473 169.093 133.402 168.336 133.353Z" fill="#969696"/>
<path d="M194.055 143.129C182.215 142.788 170.351 142.922 158.511 142.897C146.782 142.873 135.064 142.861 123.334 142.824L113.337 142.8C110.017 142.788 106.661 142.642 103.341 142.897C102.535 142.958 102.535 144.091 103.341 144.151C106.295 144.383 109.273 144.261 112.227 144.261C115.193 144.249 118.147 144.249 121.113 144.237C127.032 144.224 132.965 144.212 138.884 144.2C150.614 144.176 162.332 144.164 174.062 144.139C180.726 144.127 187.391 144.127 194.055 143.932C194.568 143.908 194.568 143.141 194.055 143.129Z" fill="#969696"/>
<path d="M197.522 180.539C185.157 180.235 172.793 180.381 160.428 180.393C148.064 180.393 135.699 180.405 123.334 180.442C116.414 180.466 109.481 180.551 102.56 180.466C101.754 180.454 101.754 181.72 102.56 181.72C114.925 181.574 127.289 181.781 139.654 181.793C152.018 181.793 164.383 181.805 176.747 181.805C183.668 181.805 190.589 181.817 197.522 181.647C198.23 181.635 198.23 180.563 197.522 180.539Z" fill="#969696"/>
<path d="M122.554 187.064C116.011 187.064 109.481 187.198 102.951 187.259C102.487 187.259 102.487 187.965 102.951 187.965C109.481 188.026 116.023 188.16 122.554 188.16C123.274 188.172 123.274 187.064 122.554 187.064Z" fill="#969696"/>
<path d="M188.672 187.88C181.434 187.405 174.135 187.612 166.885 187.649C159.561 187.685 152.238 187.734 144.914 187.77C140.789 187.795 136.663 187.819 132.55 188.026C132.086 188.05 132.086 188.72 132.55 188.732C139.8 189.097 147.075 189 154.337 189.037C161.661 189.073 168.984 189.122 176.308 189.122C180.433 189.122 184.559 189.146 188.672 188.878C189.319 188.842 189.331 187.929 188.672 187.88Z" fill="#969696"/>
<path d="M160.61 195.05C153.372 194.673 146.073 194.953 138.835 194.977C131.646 195.001 124.432 194.977 117.243 195.233C113.13 195.379 108.992 195.33 104.878 195.342C104.463 195.342 104.463 195.987 104.878 195.987C119.342 196.06 133.794 196.328 148.258 196.389C152.384 196.401 156.509 196.499 160.623 196.28C161.404 196.243 161.404 195.099 160.61 195.05Z" fill="#969696"/>
<path d="M234.225 39.5164C227.243 38.9686 220.066 39.3947 213.06 39.3947C206.444 39.3947 199.829 39.4069 193.226 39.4069C179.775 39.419 166.336 39.419 152.885 39.4312C139.434 39.4434 125.995 39.4677 112.545 39.5286C98.9473 39.5895 85.0936 39.0173 71.5451 40.186C68.5791 40.4416 68.5668 44.4712 71.5451 44.739C85.0936 45.9077 98.9473 45.3356 112.545 45.3964C125.995 45.4573 139.434 45.4817 152.885 45.4938C166.336 45.506 179.775 45.506 193.226 45.5182C199.841 45.5182 206.457 45.5303 213.06 45.5303C220.066 45.5303 227.231 45.9564 234.225 45.4086C238.07 45.0921 238.082 39.8208 234.225 39.5164Z" fill="black"/>
<path d="M201.671 56.4988C199.437 54.7336 197.667 55.0501 194.836 55.0501C192.199 55.0501 189.563 55.0501 186.926 55.0501L170.448 55.0623C159.243 55.0745 148.038 55.0745 136.833 55.0866L103.877 55.111C98.1651 55.111 92.4528 55.1719 86.7404 55.2449C82.0046 55.3058 75.6575 54.3927 71.361 56.5475C70.2258 57.1197 70.2258 58.9336 71.361 59.5058C75.6697 61.6727 81.9924 60.7475 86.7404 60.8084C92.2331 60.8814 97.7257 60.9301 103.218 60.9423C114.423 60.9545 125.628 60.9545 136.833 60.9667L169.789 60.991C175.502 60.991 181.214 61.0032 186.926 61.0032C189.563 61.0032 192.199 61.0032 194.836 61.0032C197.594 61.0032 199.462 61.2953 201.671 59.5545C202.538 58.8849 202.525 57.1806 201.671 56.4988Z" fill="black"/>
<path d="M150.75 149.763C148.834 149.228 147.308 147.097 146.527 145.332C145.697 143.445 145.855 140.974 147.442 139.659C148.455 138.819 149.859 138.6 151.177 138.734C155.266 139.184 158.415 142.848 159.538 146.805C160.661 150.749 160.185 154.962 159.709 159.04C159.355 162.022 159.001 165.005 158.647 167.988C157.964 173.782 158.733 179.845 158.733 185.688C158.733 186.419 158.757 187.174 159.111 187.807C159.77 188.975 161.259 189.304 162.59 189.511C168.973 190.534 175.54 191.763 182.034 191.532C187.246 191.349 190.224 189.803 194.972 193.48C197.572 195.488 199.561 198.617 199.232 201.88C199.049 203.633 198.219 205.276 197.096 206.652C192.665 212.045 184.756 212.775 177.762 212.605C169.51 212.398 161.272 211.522 153.155 209.988C144.916 208.417 139.167 204.302 138.471 195.598C137.812 187.356 140.387 179.127 142.633 171.299C144.72 164.019 148.797 157.311 150.665 150.092C150.701 149.958 150.726 149.861 150.75 149.763Z" fill="#FBC2AA"/>
<path d="M197.011 197.692C196.95 197.326 196.889 196.961 196.828 196.608C196.303 192.993 195.803 188.476 199.746 187.344C202.345 186.589 206.898 186.93 208.631 184.52C209.193 183.74 209.352 182.766 209.486 181.829C209.693 180.49 209.889 179.139 210.096 177.8C202.541 179.09 199.392 172.346 198.439 166.04C197.463 159.6 197.671 151.565 203.358 147.255C206.984 144.504 212.061 143.846 216.321 145.453C220.581 147.06 223.913 150.834 225.122 155.217C226.013 158.455 224.951 159.636 224.768 162.984C224.548 166.77 224.89 173.307 224.682 177.093C224.536 179.638 224.755 182.608 226.147 184.824C226.782 185.834 227.551 186.699 228.625 187.246C229.406 187.648 231.432 187.429 231.92 187.965C234.691 190.996 237.279 194.21 240.281 196.998C233.19 199.968 225.781 202.086 218.201 203.377C212.891 204.29 202.15 207.419 198.488 201.782C197.683 200.54 197.28 199.128 197.011 197.692Z" fill="#FBC2AA"/>
<path d="M259.823 215.527C259.066 206.189 254.867 196.621 246.335 191.946C243.198 190.229 239.744 189.194 236.278 188.379C234.495 187.953 232.689 187.588 230.907 187.186C228.905 186.735 228.502 187.21 227.135 188.708C224.316 191.824 219.861 193.212 215.674 192.774C213.025 192.506 210.474 191.544 208.204 190.181C205.738 188.695 204.872 186.869 201.747 187.04C192.288 187.575 182.84 188.428 173.429 189.596C174.125 197.777 174.674 209.367 176.383 217.389C181.363 216.89 192.373 215.794 192.361 217.304C192.349 219.605 192.397 221.918 192.471 224.219C192.629 228.711 192.91 233.203 193.093 237.695C193.288 242.468 193.642 247.24 194.07 251.988C194.558 257.405 195.388 262.725 196.596 267.984C208.9 272.074 222.937 271.076 236.131 269.883C239.89 269.542 243.796 269.165 247.055 267.254C256.21 261.873 256.6 245.949 257.906 236.685C258.919 229.551 260.409 222.843 259.823 215.527Z" fill="#FF6652"/>
<path d="M165.433 308.572C165.592 308.34 165.763 308.109 165.933 307.89C169.119 303.812 174.624 301.158 179.128 298.759C184.096 296.118 189.649 293.939 195.374 294.267C200.537 294.559 207.702 298.053 208.776 303.507C208.898 304.128 208.947 304.786 208.703 305.358C208.093 306.794 206.152 306.916 204.589 306.928C197.925 306.989 191.517 309.034 185.292 311.238C182.094 312.37 178.908 313.575 175.662 314.61C172.769 315.535 165.738 319.589 163.712 315.377C162.601 313.076 164.151 310.446 165.433 308.572Z" fill="black"/>
<path d="M136.543 253.814C139.24 250.843 143.073 248.92 147.003 248.177C152.52 247.142 158.22 248.141 163.64 249.638C175.113 252.791 185.867 258.099 197.389 261.057C202.503 262.372 205.836 261.885 210.828 261.483C217.163 260.972 223.668 261.593 230.04 261.215C235.996 260.862 242.441 260.4 248.019 262.043C248.751 261.556 249.484 261.081 250.216 260.594C256.441 256.516 262.654 252.462 270.466 253.947C276.605 255.116 282.537 258.221 286.333 263.261C290.373 268.617 289.165 275.617 285.54 280.961C282.537 285.381 278.107 288.643 273.517 291.382C257.686 300.854 240.39 306.66 221.703 305.37C219.201 305.2 216.259 305.163 214.453 307.172C213.782 307.927 213.379 312.054 211.877 311.871C210.022 311.652 206.458 311.14 204.713 310.507C195.265 307.111 185.83 303.702 176.383 300.306C168.083 297.311 159.734 294.304 152.178 289.763C145.636 285.843 139.716 280.535 136.25 273.657C133.748 268.702 131.697 262.177 134.309 257.027C134.919 255.847 135.664 254.775 136.543 253.814Z" fill="#9C4DF4"/>
<path d="M253.732 268.057C248.423 270.699 242.869 272.391 237.779 275.532C232.702 278.661 227.893 282.313 222.363 284.687C218.787 286.221 213.587 286.817 210.157 288.521" stroke="black" stroke-width="0.5" stroke-miterlimit="10"/>
<path d="M214.575 306.454C214.587 306.441 214.587 306.417 214.599 306.405C215.1 305.26 215.588 304.116 216.088 302.972C217.077 300.695 218.066 298.431 219.042 296.154C219.152 295.899 227.635 300.196 228.368 300.793C228.697 301.06 229.014 301.353 229.222 301.718C229.515 302.217 229.576 302.814 229.649 303.386C229.845 304.993 230.089 306.636 229.783 308.231C229.478 309.826 228.49 311.396 226.952 311.907C225.78 312.297 224.511 312.017 223.314 311.749C221.032 311.226 218.798 310.739 216.552 310.081C215.905 309.887 214.209 309.826 213.745 309.363C213.159 308.791 214.319 307.062 214.575 306.454Z" fill="#FBC2AA"/>
<path d="M224.023 297.895C224.646 297.98 225.293 298.005 225.964 297.944C227.331 297.834 228.674 297.445 230.041 297.469C232.763 297.518 233.947 299.636 235.082 301.779C237.084 305.565 240.696 308.328 243.626 311.372C247.3 315.182 249.424 318.773 248.826 324.227C248.618 326.151 247.837 328.354 245.969 328.878C244.248 329.365 242.552 328.16 241.173 327.027C237.425 323.96 233.666 320.904 229.919 317.836C228.21 316.436 226.464 314.573 224.524 313.526C223.291 312.869 221.887 312.382 220.606 311.737C221.985 307.184 223.144 302.57 224.023 297.895Z" fill="black"/>
<path d="M204.872 270.541C204.189 270.2 203.664 269.579 203.261 268.422C202.578 266.475 202.98 264.174 204.079 262.457C205.495 260.242 208.095 258.537 210.67 258.002C213.319 257.442 215.882 256.504 218.579 255.956C220.52 255.567 222.424 255.031 224.328 254.496C230.151 252.864 236.424 251.622 241.954 249.188C242.295 249.042 242.637 248.871 242.833 248.555C243.089 248.129 242.979 247.593 242.857 247.106C241.002 239.668 239.305 232.193 237.755 224.682C237.23 222.125 236.717 219.544 236.742 216.939C236.791 212.203 238.695 207.516 241.966 204.083C243.968 201.977 246.738 200.285 249.619 200.614C251.987 200.894 254.025 202.525 255.368 204.509C256.711 206.494 257.431 208.795 258.151 211.059C260.568 218.716 263.375 226.471 264.461 234.433C264.742 236.515 264.73 238.621 264.718 240.715C264.681 246.741 264.522 253.144 261.202 258.172C250.266 274.68 224.902 272.647 207.899 271.064C206.63 270.979 205.653 270.93 204.872 270.541Z" fill="#FBC2AA"/>
<path d="M209.681 142.313C206.605 142.775 203.651 144.017 201.173 146.038C198.415 148.29 197.548 150.676 196.974 154.207C196.938 154.438 196.913 154.693 197.048 154.888C197.194 155.095 197.487 155.144 197.743 155.18C202.137 155.704 206.556 156.081 210.987 156.313C211.475 156.337 211.975 156.361 212.427 156.179C213.55 155.728 213.989 154.207 215.137 153.817C215.295 155.29 215.185 156.8 214.832 158.236C214.673 158.869 214.465 159.539 214.673 160.16C215.088 161.413 216.565 161.389 217.517 161.961C218.701 162.667 219.848 164.104 220.3 165.394C220.898 167.099 221.166 168.961 222.216 170.471C222.485 170.86 222.802 171.213 223.107 171.566C223.681 172.224 224.242 172.881 224.816 173.539C225.17 173.271 225.341 172.845 225.487 172.443C226.683 169.229 227.953 166.04 228.71 162.704C229.393 159.709 229.369 156.52 228.588 153.549C228.246 152.21 227.623 150.859 227.001 149.629C226.659 148.947 226.207 148.229 225.768 147.596C225.634 147.401 224.316 145.685 224.084 145.831C224.377 145.636 224.743 145.271 224.608 144.881C224.45 144.419 223.376 144.747 223.083 144.906C223.254 144.638 223.498 144.407 223.669 144.139C223.839 143.871 223.949 143.518 223.815 143.226C223.73 143.043 223.559 142.909 223.376 142.812C222.9 142.58 222.326 142.641 221.874 142.897C221.398 143.165 220.995 143.652 220.886 144.175C217.273 142.593 213.672 141.716 209.681 142.313Z" fill="black"/>
<path d="M162.26 258.878C172.891 263.674 181.447 272.001 191.115 278.502C200.147 284.565 210.156 289.021 220.104 293.452C219.579 294.584 219.371 295.716 218.859 296.848" stroke="black" stroke-width="0.5" stroke-miterlimit="10"/>
<path d="M207.666 168.389C207.031 170.459 204.492 171.713 202.466 170.97" stroke="#1C1C1B" stroke-width="0.5" stroke-miterlimit="10"/>
<path d="M218.395 167.78C222.313 168.754 224.754 164.64 223.558 161.949C221.898 158.212 216.649 158.833 215.685 162.765" fill="#FBC2AA"/>
<path d="M220.396 161.645C219.664 161.438 218.81 161.56 218.187 161.961C217.565 162.363 217.211 163.021 217.235 163.666" stroke="#1C1C1B" stroke-width="0.5" stroke-miterlimit="10"/>
<path d="M249.568 195.988C242.416 196.742 235.861 201.697 233.212 208.381C230.466 215.32 231.833 223.111 233.237 230.44C237.851 230.306 241.927 230.622 246.517 229.722C252.473 228.553 258.259 226.715 263.861 224.45C262.201 213.847 259.125 203.682 251.533 196.036C250.801 195.282 250.618 195.878 249.568 195.988Z" fill="#FF6652"/>
<path d="M168.926 127.412C162.994 130.005 157.623 133.353 152.533 137.346C150.068 139.281 147.736 141.46 145.539 143.688C144.368 144.881 143.257 146.147 142.158 147.401C141.926 146.707 141.694 146.026 141.462 145.344C140.718 143.128 139.876 140.974 138.948 138.831C138.081 136.798 137.129 134.801 136.104 132.841C135.03 130.784 133.993 128.033 131.795 126.998C130.282 126.28 128.927 127.18 128.72 128.763C128.414 131.1 130.27 133.267 131.319 135.24C132.357 137.2 133.321 139.184 134.2 141.217C135.006 143.055 135.75 144.991 136.421 146.914C137.154 148.996 137.666 151.175 138.435 153.233C139.192 155.254 141.829 155.753 143.061 153.829C144.66 151.321 146.906 149.045 148.945 146.878C151.032 144.662 153.217 142.568 155.45 140.499C159.954 136.323 164.751 132.403 169.719 128.787C170.561 128.179 169.866 126.998 168.926 127.412Z" fill="#9C4DF4"/>
<path d="M238.157 276.372H177.896C177.018 276.372 176.297 275.653 176.297 274.777C176.297 273.9 177.018 273.182 177.896 273.182H238.157C239.036 273.182 239.756 273.9 239.756 274.777C239.756 275.653 239.036 276.372 238.157 276.372Z" fill="black"/>
<path d="M229.223 274.205H176.481L165.532 247.227C165.178 246.351 165.825 245.389 166.777 245.389H216.626C217.175 245.389 217.664 245.718 217.871 246.229L229.223 274.205Z" fill="black"/>
<path d="M191.823 259.815C192.384 261.276 194.276 262.457 196.046 262.457C197.816 262.457 198.804 261.276 198.243 259.815C197.681 258.354 195.79 257.173 194.02 257.173C192.25 257.173 191.261 258.354 191.823 259.815Z" stroke="white" stroke-width="0.5" stroke-miterlimit="10"/>
<path d="M209.704 177.641C209.802 178.652 209.716 179.662 209.619 180.66C209.68 180.648 209.753 180.624 209.814 180.612C211.889 179.966 213.598 178.286 214.477 176.302C213.024 177.105 211.376 177.556 209.704 177.641Z" fill="black"/>
<path d="M150.848 149.921C148.566 148.363 146.259 146.793 144.416 144.747C144.037 144.333 143.683 143.871 143.586 143.323C143.488 142.775 143.769 142.13 144.306 141.984C144.904 141.826 145.453 142.325 145.917 142.751C147.663 144.37 149.969 145.405 152.35 145.624" fill="white"/>
<path d="M150.848 149.921C148.566 148.363 146.259 146.793 144.416 144.747C144.037 144.333 143.683 143.871 143.586 143.323C143.488 142.775 143.769 142.13 144.306 141.984C144.904 141.826 145.453 142.325 145.917 142.751C147.663 144.37 149.969 145.405 152.35 145.624" stroke="#1C1C1B" stroke-width="0.5" stroke-miterlimit="10"/>
<path d="M230.479 318.907C230.577 318.847 230.675 318.774 230.772 318.7C230.882 318.615 231.004 318.567 231.126 318.506C231.37 318.396 231.602 318.287 231.846 318.189C231.749 318.238 231.639 318.274 231.541 318.323C231.993 318.128 232.432 317.885 232.823 317.593C232.921 317.52 233.006 317.447 233.104 317.361C233.262 317.215 233.421 317.081 233.641 317.02C234.031 316.899 234.52 317.094 234.727 317.447C234.91 317.763 234.898 318.116 234.739 318.433C234.703 318.506 234.654 318.567 234.617 318.64C234.532 318.773 234.446 318.907 234.349 319.029C234.105 319.358 233.848 319.674 233.555 319.954C233.262 320.247 232.945 320.514 232.591 320.721C232.371 320.855 232.139 321.001 231.883 321.05C231.627 321.111 231.358 321.135 231.102 321.16C230.992 321.147 230.882 321.135 230.785 321.111C230.626 321.074 230.492 321.001 230.37 320.892C230.174 320.733 229.991 320.514 229.93 320.259C229.796 319.723 230.016 319.212 230.479 318.907Z" fill="#FF6652"/>
<path d="M227.561 315.56C227.622 315.353 227.732 315.17 227.879 315.012C228.147 314.708 228.428 314.403 228.697 314.087C228.819 313.953 228.953 313.868 229.124 313.819C229.282 313.734 229.453 313.697 229.636 313.709C229.819 313.697 229.99 313.746 230.149 313.819C230.308 313.868 230.454 313.965 230.576 314.087C230.649 314.172 230.71 314.269 230.784 314.355C230.906 314.561 230.967 314.781 230.967 315.012C230.955 315.134 230.93 315.243 230.918 315.365C230.857 315.584 230.747 315.779 230.576 315.949C230.271 316.229 229.966 316.497 229.649 316.765C229.539 316.887 229.404 316.972 229.246 317.021C229.099 317.094 228.941 317.13 228.77 317.13C228.599 317.142 228.44 317.106 228.294 317.021C228.135 316.972 228.001 316.887 227.891 316.765C227.83 316.68 227.757 316.595 227.696 316.509C227.586 316.315 227.525 316.108 227.525 315.876C227.525 315.779 227.537 315.669 227.561 315.56Z" fill="#FF6652"/>
<path d="M223.948 312.382C224.144 312.09 224.339 311.798 224.534 311.506C224.608 311.372 224.717 311.25 224.84 311.177C224.949 311.067 225.096 311.006 225.242 310.958C225.401 310.909 225.56 310.897 225.718 310.933C225.877 310.946 226.023 310.982 226.158 311.079C226.243 311.14 226.316 311.201 226.402 311.262C226.548 311.408 226.658 311.591 226.707 311.786C226.719 311.895 226.731 311.992 226.756 312.102C226.756 312.321 226.695 312.516 226.597 312.699C226.402 312.991 226.207 313.283 226.011 313.575C225.938 313.709 225.828 313.831 225.706 313.904C225.596 314.013 225.45 314.074 225.303 314.123C225.145 314.172 224.986 314.184 224.827 314.147C224.669 314.135 224.522 314.099 224.388 314.001C224.302 313.94 224.229 313.879 224.144 313.819C223.997 313.672 223.887 313.49 223.839 313.295C223.826 313.186 223.814 313.088 223.802 312.979C223.778 312.772 223.839 312.565 223.948 312.382Z" fill="#FF6652"/>
<path d="M181.484 309.57C181.557 309.314 181.753 309.047 181.985 308.925C182.241 308.791 182.546 308.73 182.827 308.815C182.912 308.852 182.998 308.888 183.083 308.925C183.242 309.022 183.376 309.156 183.474 309.314C183.657 309.558 183.852 309.801 184.035 310.045C184.133 310.167 184.243 310.276 184.34 310.386C184.389 310.434 184.438 310.483 184.475 310.532C184.56 310.617 184.645 310.714 184.706 310.824C184.768 310.921 184.816 311.055 184.853 311.165C184.938 311.433 185.012 311.701 185.097 311.968C185.195 312.297 185.06 312.65 184.792 312.857C184.536 313.052 184.145 313.101 183.852 312.918C183.657 312.796 183.474 312.674 183.278 312.553C183.23 312.516 183.181 312.492 183.132 312.455C182.937 312.321 182.778 312.175 182.656 311.968C182.583 311.859 182.522 311.749 182.448 311.64C182.192 311.214 181.875 310.824 181.582 310.422C181.435 310.191 181.423 309.814 181.484 309.57Z" fill="#FF6652"/>
<path d="M186.148 307.975C186.221 307.719 186.417 307.452 186.648 307.33C187.027 307.123 187.503 306.965 187.771 307.379C188.199 308.048 188.626 308.718 189.065 309.387C189.407 309.923 189.761 310.544 189.553 311.14C189.492 311.335 189.358 311.518 189.163 311.615C188.894 311.737 188.577 311.652 188.308 311.506C187.845 311.25 187.588 310.799 187.308 310.361C187.234 310.252 187.173 310.142 187.1 310.033C186.844 309.606 186.526 309.217 186.233 308.815C186.099 308.596 186.075 308.219 186.148 307.975Z" fill="#FF6652"/>
<path d="M177.2 311.396C177.249 311.238 177.347 311.092 177.469 310.982C177.713 310.751 178.042 310.593 178.384 310.605C178.714 310.617 179.08 310.727 179.3 310.982C179.788 311.567 180.276 312.139 180.752 312.723C180.874 312.845 180.972 312.979 181.021 313.137C181.106 313.295 181.143 313.454 181.131 313.636C181.143 313.819 181.094 313.977 181.021 314.135C180.972 314.294 180.874 314.44 180.752 314.549C180.508 314.781 180.178 314.939 179.837 314.927C179.507 314.914 179.141 314.805 178.921 314.549C178.433 313.965 177.945 313.393 177.469 312.808C177.347 312.687 177.249 312.553 177.2 312.394C177.115 312.236 177.078 312.078 177.09 311.895C177.078 311.713 177.115 311.554 177.2 311.396Z" fill="#FF6652"/>
<path d="M284.296 269.067C283.734 270.187 284.027 271.587 283.49 272.72C283.1 273.56 282.318 274.144 281.781 274.911C280.951 276.104 280.817 277.784 281.61 279.001C282.392 280.219 284.113 280.791 285.419 280.146C286.456 279.634 287.054 278.514 287.469 277.431C288.324 275.191 289.227 271.685 288.495 269.299C287.884 267.363 285.345 266.949 284.296 269.067Z" fill="black"/>
<path d="M134.662 260.728C135.602 259.974 136.993 259.791 138.08 260.351C139.154 260.911 139.825 262.189 139.593 263.37C139.471 264.015 139.105 264.624 139.081 265.281C139.044 266.121 139.557 266.888 139.825 267.692C140.228 268.885 140.057 270.297 139.215 271.222C138.373 272.16 136.847 272.464 135.797 271.782C134.686 271.052 134.406 269.579 134.198 268.264C133.832 265.902 132.38 262.554 134.662 260.728Z" fill="black"/>
<path d="M194.435 214.589C194.325 214.48 194.105 214.455 193.996 214.589C193.703 214.955 193.385 215.32 193.117 215.697C192.982 215.88 192.848 216.062 192.714 216.245C192.58 216.428 192.421 216.61 192.299 216.817C192.152 217.061 192.482 217.304 192.69 217.109C192.848 216.951 192.995 216.768 193.141 216.598C193.288 216.428 193.434 216.257 193.581 216.087C193.886 215.746 194.154 215.381 194.435 215.028C194.533 214.894 194.557 214.723 194.435 214.589Z" fill="black"/>
<path d="M240.182 230.208C239.255 230.22 238.352 230.403 237.485 230.719C237.216 228.881 236.948 227.055 236.667 225.217C236.374 223.281 236.02 221.346 235.752 219.398C235.74 219.3 235.569 219.325 235.581 219.422C235.801 221.406 235.935 223.391 236.167 225.375C236.399 227.323 236.655 229.271 236.923 231.219C236.948 231.377 237.168 231.486 237.302 231.438C238.217 231.06 239.169 230.866 240.17 230.841C240.597 230.829 240.597 230.208 240.182 230.208Z" fill="black"/>
<path d="M107.212 292.721C105.467 295.96 101.756 297.53 98.3506 298.321C97.3253 298.565 96.2878 298.747 95.2503 298.942C94.4325 299.088 93.5659 299.186 92.7847 299.49C91.0026 300.172 92.9556 301.267 93.8588 301.669C94.3959 301.913 94.5302 302.692 94.2494 303.167C93.9199 303.702 93.2974 303.8 92.7481 303.556C92.0036 303.215 91.1858 302.716 90.6121 302.071L89.4525 305.967H71.9493L70.5822 281.278L96.9714 280.84L96.2756 283.165C99.1928 282.325 102.781 282.008 105.393 283.761C108.347 285.758 108.835 289.69 107.212 292.721ZM104.209 285.758C101.78 284.054 98.2285 284.699 95.6165 285.551C95.5921 285.563 95.5677 285.575 95.5432 285.575L91.9914 297.445C92.6017 297.214 93.273 297.055 93.871 296.934C97.2887 296.24 101.158 295.753 103.807 293.245C105.796 291.37 106.87 287.633 104.209 285.758Z" fill="#9C4DF4"/>
<path d="M91.9054 286.951C91.3561 288.874 90.8069 290.786 90.3308 292.721C90.2332 293.111 90.8068 293.257 90.9289 292.88C91.5514 290.98 92.1006 289.057 92.6499 287.146C92.7842 286.683 92.0396 286.488 91.9054 286.951Z" fill="black"/>
<path d="M89.4284 296.203C89.1477 297.165 88.867 298.115 88.5862 299.076C88.3055 300.038 88.098 301.012 87.8539 301.974C87.7563 302.375 88.3421 302.534 88.4642 302.144C88.7694 301.195 89.1111 300.245 89.3796 299.295L90.1853 296.41C90.3195 295.923 89.5627 295.716 89.4284 296.203Z" fill="black"/>
<path d="M88.4142 293.44C88.3166 293.415 88.1823 293.464 88.1579 293.586C88.0846 294 88.0236 294.414 87.9504 294.815C87.9382 294.925 87.9748 295.047 88.0968 295.071C88.1945 295.095 88.3288 295.047 88.3532 294.925C88.4264 294.511 88.4874 294.097 88.5607 293.695C88.5729 293.586 88.5241 293.464 88.4142 293.44Z" fill="black"/>
<path d="M260.627 251.646C260.468 253.911 259.418 256.017 257.868 257.648C257.685 257.843 257.966 258.111 258.161 257.94C259.931 256.346 260.907 254.02 260.98 251.646C260.98 251.415 260.639 251.427 260.627 251.646Z" fill="black"/>
<path d="M145.83 201.916C144.89 201.49 143.951 201.052 143.011 200.638C142.815 200.553 142.632 200.845 142.84 200.93C143.78 201.368 144.719 201.782 145.659 202.208C145.855 202.294 146.038 202.001 145.83 201.916Z" fill="black"/>
<path d="M83.8858 230.123C81.4324 233.215 78.4419 235.845 75.7933 238.767C72.9859 241.859 70.8255 245.474 68.0181 248.567C65.5769 251.269 62.6597 253.546 59.4618 255.287C57.2037 256.516 51.943 259.474 49.2577 258.817C44.058 257.527 47.9517 248.798 49.5873 245.925C51.5402 242.48 54.2865 239.497 57.1915 236.831C60.2308 234.055 63.5264 231.584 66.7975 229.1C70.4715 226.3 74.1333 223.513 77.8073 220.713C78.6983 220.043 79.5649 219.337 80.4804 218.692C81.2371 218.156 82.0671 217.718 82.9948 217.608C84.5937 217.438 86.0462 218.485 86.8152 219.824C88.8292 223.342 86.034 227.42 83.8858 230.123Z" fill="#9C4DF4"/>
<path d="M28.2513 235.711C28.9959 231.718 30.6193 227.944 31.5469 224C32.7797 218.765 32.7797 213.323 33.744 208.04C34.7082 202.756 36.8809 197.339 41.2751 194.247C42.4956 193.395 43.8871 192.725 45.364 192.615C48.0371 192.408 50.5881 194.064 52.1017 196.28C53.603 198.483 54.2255 201.174 54.5916 203.828C56.0441 214.261 53.9936 225.156 48.8305 234.348C47.2193 237.221 45.3152 239.923 43.9115 242.894C42.044 246.826 41.0675 251.16 40.8722 255.506C40.7868 257.393 40.8234 259.365 39.9934 261.069C39.2 262.725 36.295 265.245 34.2933 264.186C32.5112 263.236 31.2784 257.648 30.6437 255.847C28.41 249.419 26.9819 242.504 28.2513 235.711Z" fill="#9C4DF4"/>
<path d="M10.7487 235.638C10.3826 233.69 10.0774 231.45 11.359 229.94C13.1289 227.847 16.693 228.711 18.6093 230.671C20.8186 232.923 21.734 236.149 22.0148 239.29C22.2955 242.431 22.0392 245.596 22.2833 248.725C22.6617 253.533 24.224 258.147 25.2371 262.859C26.1648 267.144 24.4071 270.066 21.2214 265.829C19.061 262.968 17.4376 259.657 16.1071 256.346C13.4585 249.699 12.0792 242.626 10.7487 235.638Z" fill="#9C4DF4"/>
<path d="M70.4828 232.655C69.5186 234.408 68.4323 236.052 67.1384 237.574C65.8446 239.083 64.4165 240.483 62.9517 241.834C60.0101 244.537 56.8366 246.996 54.0415 249.857C52.6988 251.233 51.4416 252.694 50.3675 254.288C49.1103 256.151 48.1826 258.184 47.4747 260.314C46.6325 262.834 45.9978 265.427 45.3021 267.996C44.5697 270.674 43.8374 273.365 43.105 276.043C42.3117 278.965 41.5183 281.874 40.8836 284.833C40.5784 286.269 40.3098 287.718 40.0901 289.179C39.9925 289.86 39.9192 290.554 39.846 291.248C39.8094 291.626 39.785 291.991 39.7606 292.368C39.7484 292.514 39.7484 292.66 39.7484 292.807C39.785 292.466 39.846 292.125 39.8827 291.808C39.9803 291.041 40.0902 290.274 40.2122 289.507C40.4197 288.205 40.6761 286.914 40.9568 285.636C41.5305 283.055 42.2384 280.523 42.9464 277.979C44.3989 272.756 45.7781 267.509 47.316 262.323C48.0117 259.986 48.8418 257.685 50.1112 255.579C51.1243 253.911 52.3449 252.389 53.6753 250.965C56.3972 248.067 59.5219 245.596 62.5246 242.991C65.7958 240.142 69.2134 237.001 71.1419 233.045C71.3494 232.594 70.727 232.217 70.4828 232.655Z" fill="#1C1C1B"/>
<path d="M39.7114 293.403C39.7358 293.208 39.7358 293.001 39.748 292.794C39.7114 293.001 39.6992 293.208 39.7114 293.403Z" fill="#1C1C1B"/>
<path d="M39.7246 293.768C39.7124 293.647 39.7124 293.525 39.7124 293.403C39.7002 293.525 39.6758 293.647 39.6513 293.756C39.6269 293.817 39.7246 293.817 39.7246 293.768Z" fill="#1C1C1B"/>
<path d="M38.1623 241.068C38.5162 236.405 39.3463 231.767 40.9575 227.36C41.0063 227.226 40.7988 227.165 40.75 227.299C37.7839 235.09 37.3445 243.478 37.4422 251.732C37.491 255.981 37.674 260.229 37.7107 264.478C37.7595 268.885 37.6008 273.28 37.2225 277.662C36.8197 282.301 36.2338 286.915 35.6235 291.528C30.5336 280.779 25.8831 269.822 21.7575 258.671C20.5492 255.396 19.3774 252.097 18.2545 248.786C18.108 248.36 17.4367 248.542 17.5709 248.968C21.5256 260.704 26.0296 272.257 31.0829 283.567C32.511 286.756 33.9757 289.921 35.5014 293.075C35.6845 293.464 36.185 293.208 36.2216 292.88C37.3567 284.005 38.4186 275.118 38.3576 266.158C38.2966 257.819 37.5276 249.443 38.1623 241.068Z" fill="#1C1C1B"/>
<path d="M21.4285 279.294C23.3815 288.266 24.7119 297.664 23.3082 306.697C26.4573 306.709 42.3372 306.795 47.4515 306.746C47.3904 305.955 47.3294 305.175 47.2928 304.384C46.9999 298.784 47.366 293.148 49.0382 287.767C49.441 286.464 50.2833 282.228 50.8203 280.962L50.7226 279.294H21.4285Z" fill="#FF6652"/>
<path d="M51.9434 274.315L20.5376 274.363C20.269 274.363 20.0128 274.388 19.7564 274.436V281.68C20.0128 281.729 20.269 281.753 20.5376 281.753L51.2842 281.692L51.9434 274.315Z" fill="#1A0400"/>
<path d="M46.2422 285.308C45.8028 285.819 45.461 286.464 45.1559 287.061C44.8508 287.657 44.5944 288.29 44.3503 288.923C43.862 290.226 43.5691 291.541 43.4348 292.916C43.386 293.489 44.3503 293.635 44.4602 293.05C44.6921 291.784 44.9972 290.506 45.4122 289.276C45.6197 288.668 45.8638 288.071 46.1324 287.475C46.3887 286.89 46.7182 286.318 46.9623 285.722C47.121 285.332 46.5108 284.991 46.2422 285.308Z" fill="#1C1C1B"/>
<path d="M44.0216 296.544C44.0338 296.13 43.3869 296.13 43.3747 296.544C43.3015 298.638 42.8987 300.707 42.9597 302.814C42.9841 303.483 43.9117 303.447 43.9728 302.814C44.2047 300.72 43.9484 298.638 44.0216 296.544Z" fill="#1C1C1B"/>
<path d="M41.9825 304.908C39.8099 304.555 37.5763 304.445 35.3914 304.713C34.6591 304.798 34.7933 305.809 35.5257 305.711C37.6373 305.431 39.7733 305.37 41.885 305.614C42.2877 305.662 42.3853 304.969 41.9825 304.908Z" fill="#1C1C1B"/>
<path d="M297.575 213.299C295.378 214.273 292.619 216.087 292.29 218.68C292.192 219.447 290.996 219.788 290.813 218.875C290.532 217.487 289.91 216.221 288.884 215.222C287.823 214.176 286.394 213.725 285.247 212.788C284.893 212.496 285.088 211.826 285.528 211.741C287.774 211.302 290.19 210.073 291.191 207.979C291.081 207.602 290.996 207.2 290.959 206.786C290.911 206.226 291.423 205.763 291.936 205.678C292.51 205.593 292.986 205.958 293.169 206.482C293.657 207.906 294.353 209.16 295.219 210.329C295.952 210.962 296.782 211.509 297.563 212.045C297.966 212.337 298.112 213.068 297.575 213.299Z" fill="#D9E0FC"/>
<path d="M305.948 227.567C305.423 227.056 304.861 226.569 304.312 226.094C304.605 225.948 304.91 225.789 305.203 225.631C305.594 225.412 305.753 224.852 305.508 224.475C305.24 224.049 304.788 223.988 304.349 224.17C304.215 224.231 304.08 224.292 303.958 224.353C304.117 223.379 304.288 222.393 304.508 221.419C304.678 220.652 303.519 220.323 303.324 221.09C303.043 222.21 302.725 223.33 302.42 224.438C301.895 223.988 301.371 223.525 300.846 223.075C300.565 222.831 300.15 222.807 299.881 223.075C299.613 223.342 299.625 223.769 299.881 224.036C300.382 224.572 300.882 225.108 301.371 225.656C301.126 225.789 300.87 225.923 300.638 226.082C300.248 226.325 299.82 226.52 299.405 226.727C299.039 226.909 298.929 227.433 299.125 227.774C299.344 228.151 299.796 228.236 300.174 228.042C300.553 227.847 300.943 227.628 301.334 227.482C301.456 227.433 301.566 227.384 301.676 227.336C301.615 227.579 301.554 227.823 301.505 228.054C301.31 228.869 301.017 229.709 300.98 230.549C300.931 231.73 302.677 231.913 303.006 230.817C303.226 230.063 303.226 229.235 303.324 228.456C303.348 228.261 303.385 228.066 303.409 227.859C303.763 228.236 304.129 228.614 304.508 228.991C304.886 229.356 305.569 229.405 305.948 228.991C306.314 228.602 306.351 227.956 305.948 227.567Z" fill="#D9E0FC"/>
<path d="M30.2653 60.6503C28.6663 59.9442 27.4824 58.6781 26.8599 57.059C26.6402 56.4746 25.8468 56.4381 25.6393 57.059C25.3708 57.8503 24.9069 58.5564 24.3821 59.1894C24.3577 59.2259 24.3332 59.2625 24.3088 59.2868C23.8328 59.6885 23.2835 60.0294 22.6854 60.2242C22.2948 60.3459 22.2704 60.9303 22.6854 61.0398C23.5032 61.259 24.2112 61.5877 24.8092 62.1964C25.3829 62.7929 25.7491 63.5233 25.8834 64.3268C25.9932 64.9842 26.9941 64.7042 26.8965 64.0468C26.7866 63.3529 27.519 62.8416 28.0438 62.5616C28.764 62.172 29.533 61.8433 30.2897 61.5025C30.5949 61.3685 30.5949 60.7964 30.2653 60.6503Z" fill="#D9E0FC"/>
<path d="M22.0387 43.7164C22.417 43.8747 22.9053 44.2034 22.7344 44.5686C22.6368 44.7756 22.3926 44.8486 22.1729 44.9095C19.8782 45.4695 15.6428 46.346 15.7893 49.5356C15.8137 50.2173 14.7883 50.3269 14.6175 49.6938C14.0194 47.3564 12.5913 45.2382 10.4186 44.1182C9.9304 43.8625 10.199 43.193 10.675 43.1564C11.8956 43.0712 13.0551 42.5721 13.9827 41.793C15.0935 40.8677 15.3742 40.3443 15.6549 38.9808C15.7648 38.433 16.0822 37.8608 16.6315 37.7269C16.7291 37.7025 16.8512 37.6903 16.9488 37.739C17.1441 37.8121 17.2295 38.0434 17.2906 38.2382C18.0473 40.4295 19.512 42.4504 21.5626 43.5095C21.7335 43.5704 21.88 43.6434 22.0387 43.7164Z" fill="#D9E0FC"/>
<path d="M270.442 77.0488C269.868 76.6957 268.879 76.5983 268.476 76.0383C267.756 75.0157 269.514 75.0522 270.002 74.9183C270.905 74.6748 271.638 73.9809 272.126 73.1774C272.614 72.374 272.883 71.4609 273.139 70.5601C273.749 70.8888 273.871 71.6679 274.128 72.3131C274.567 73.4088 275.568 74.2122 276.703 74.5044C277.106 74.6018 279.291 75.0766 277.777 75.8557C276.764 76.367 275.617 76.8053 274.787 77.6088C274.262 78.1201 273.481 80.567 272.883 80.4696C272.614 80.4331 272.419 80.214 272.297 79.9705C272.187 79.727 272.138 79.4592 272.065 79.2035C271.931 78.7409 271.711 78.3027 271.406 77.9253C271.15 77.5844 270.82 77.2922 270.442 77.0488Z" fill="#D9E0FC"/>
<path d="M13.5688 82.0277C11.0422 82.8434 9.63852 85.3025 9.01602 87.7129C8.83293 88.3947 7.72218 88.2607 7.771 87.5425C7.84423 86.2642 7.36821 85.0468 6.55041 84.0729C5.57394 82.9042 4.38997 82.5512 3.03511 81.9425C2.83982 81.8573 2.6079 81.7355 2.57128 81.5164C2.53467 81.3094 2.70555 81.1147 2.87643 80.9929C3.45011 80.6033 4.19468 80.6399 4.87821 80.506C6.5138 80.2016 7.89305 78.826 8.22261 77.2068C8.29585 76.866 8.32027 76.5007 8.46674 76.1842C8.61321 75.8677 8.94276 75.5999 9.29673 75.6486C9.72394 75.7094 9.9436 76.1721 10.0901 76.5738C10.383 77.3895 10.5783 78.1564 11.2008 78.7773C11.9454 79.5199 12.8486 80.1042 13.7518 80.6155C14.3499 80.9564 14.1791 81.8329 13.5688 82.0277Z" fill="#D9E0FC"/>
</svg>
