<svg width="24" height="22" viewBox="0 0 24 22" fill="none" xmlns="http://www.w3.org/2000/svg">
    <path
        d="M23.7871 20.7106L17.9547 15.4071C19.5193 13.7716 20.4665 11.6376 20.4665 9.30524C20.4665 4.17115 15.874 0 10.2332 0C4.58713 0 0 4.17599 0 9.30524C0 14.4345 4.59245 18.6105 10.2332 18.6105C12.7982 18.6105 15.145 17.7491 16.9436 16.3265L22.776 21.63C22.9144 21.7558 23.1006 21.8235 23.2815 21.8235C23.4625 21.8235 23.6487 21.7606 23.7871 21.63C24.0638 21.3783 24.0638 20.9622 23.7871 20.7106ZM1.43148 9.30524C1.43148 4.89215 5.38003 1.30651 10.2279 1.30651C15.0811 1.30651 19.0244 4.89698 19.0244 9.30524C19.0244 13.7135 15.0811 17.3088 10.2279 17.3088C5.38003 17.3088 1.43148 13.7183 1.43148 9.30524Z"
        fill="#434343" />
</svg>