<svg fill="currentColor" width="52" height="52" viewBox="0 0 24 24" xmlns="http://www.w3.org/2000/svg"><path d="M13.3271 3.49631C13.7399 3.12993 14 2.59534 14 2C14 0.895431 13.1046 0 12 0C10.8954 0 10 0.895431 10 2C10 2.59534 10.2601 3.12993 10.6729 3.49631L7.60203 10.3066C7.29298 10.992 6.37953 11.1162 5.9014 10.5378L3.87894 8.09134C3.95685 7.90989 4 7.70998 4 7.5C4 6.67157 3.32843 6 2.5 6C1.67157 6 1 6.67157 1 7.5C1 8.20479 1.48607 8.79605 2.14127 8.95683L3.727 16.0421C3.81451 17.1007 4.69242 17.915 5.74626 17.915H18.2537C19.3076 17.915 20.1855 17.1007 20.273 16.0421L21.8587 8.95683C22.5139 8.79605 23 8.20479 23 7.5C23 6.67157 22.3284 6 21.5 6C20.6716 6 20 6.67157 20 7.5C20 7.70998 20.0431 7.90989 20.1211 8.09134L18.0986 10.5378C17.6205 11.1162 16.707 10.992 16.398 10.3066L13.3271 3.49631ZM11.0949 10.7488L11.7607 9.16348C11.8523 8.94551 12.1477 8.94551 12.2393 9.16348L12.9051 10.7488C12.9431 10.8391 13.0245 10.901 13.1183 10.9109L14.7644 11.0839C14.9907 11.1076 15.082 11.4018 14.9123 11.5603L13.6777 12.713C13.6074 12.7787 13.5762 12.8789 13.5963 12.9753L13.9478 14.6675C13.9961 14.9002 13.7571 15.082 13.5606 14.9619L12.1317 14.0891C12.0503 14.0394 11.9497 14.0394 11.8683 14.0891L10.4394 14.9619C10.2429 15.082 10.0039 14.9002 10.0522 14.6675L10.4037 12.9753C10.4238 12.8789 10.3926 12.7787 10.3223 12.713L9.08773 11.5603C8.91797 11.4018 9.00927 11.1076 9.23561 11.0839L10.8817 10.9109C10.9755 10.901 11.0569 10.8391 11.0949 10.7488Z"/><path d="M4.79232 19.9907C4.2257 19.9907 3.76636 20.4405 3.76636 20.9954C3.76636 21.5504 4.2257 22.0002 4.79232 22.0002H19.2077C19.7743 22.0002 20.2337 21.5504 20.2337 20.9954C20.2337 20.4405 19.7743 19.9907 19.2077 19.9907H4.79232Z"/></svg>